# 3ds Max Wavefront OBJ Exporter v0.97b - (c)2007 guruware
# File Created: 17.02.2019 19:28:05

mtllib PlayerDirector.mtl

#
# object Pyramid001
#

v  0.0000 -0.0000 11.6965
v  -5.0000 -5.0000 -6.6965
v  0.0000 0.0000 1.6965
v  5.0000 -5.0000 -6.6965
v  5.0000 5.0000 -6.6965
v  -5.0000 5.0000 -6.6965
# 6 vertices

vn -0.0000 -1.0000 -0.0000
vn 0.7071 -0.7071 -0.0000
vn 0.0000 -1.0000 -0.0000
vn -0.7071 -0.7071 -0.0000
vn 1.0000 -0.0000 -0.0000
vn 0.7071 0.7071 0.0000
vn 0.0000 1.0000 0.0000
vn -0.7071 0.7071 0.0000
vn -0.0000 1.0000 0.0000
vn -1.0000 0.0000 0.0000
vn -1.0000 -0.0000 -0.0000
# 11 vertex normals

vt 0.7666 0.6385 0.0000
vt 0.0005 0.8468 0.0000
vt 0.3501 0.6385 0.0000
vt 0.0005 0.4303 0.0000
vt 0.2210 0.7912 0.0000
vt 0.9872 0.5830 0.0000
vt 0.6376 0.7912 0.0000
vt 0.9872 0.9995 0.0000
vt 0.0005 0.4237 0.0000
vt 0.7666 0.2154 0.0000
vt 0.4170 0.4237 0.0000
vt 0.7666 0.6319 0.0000
vt 0.7723 0.2088 0.0000
vt 0.0062 0.4170 0.0000
vt 0.3558 0.2088 0.0000
vt 0.0062 0.0005 0.0000
# 16 texture coords

o Pyramid001
g Pyramid001
usemtl Material__25
f 1/1/1 2/2/2 3/3/3 
f 3/3/3 4/4/4 1/1/1 
f 1/5/5 4/6/6 3/7/5 
f 3/7/5 5/8/2 1/5/5 
f 1/9/7 5/10/8 3/11/9 
f 3/11/9 6/12/6 1/9/7 
f 1/13/10 6/14/4 3/15/11 
f 3/15/11 2/16/8 1/13/10 
# 8 faces

