# 3ds Max Wavefront OBJ Exporter v0.97b - (c)2007 guruware
# File Created: 20.02.2019 13:38:20

mtllib Effect3.mtl

#
# object Cylinder001
#

v  0.7631 11.9767 36.6272
v  6.6492 9.9906 36.6272
v  4.9564 15.4746 -67.1266
v  -3.4449 15.8796 -67.1266
v  10.7537 5.3275 36.6272
v  12.0297 10.9232 -67.1266
v  11.9767 -0.7631 36.6272
v  15.8796 3.4449 -67.1266
v  9.9906 -6.6492 36.6272
v  15.4746 -4.9565 -67.1266
v  5.3274 -10.7536 36.6272
v  10.9232 -12.0297 -67.1266
v  -0.7631 -11.9766 36.6272
v  3.4449 -15.8797 -67.1266
v  -6.6492 -9.9905 36.6272
v  -4.9565 -15.4746 -67.1266
v  -10.7537 -5.3274 36.6272
v  -12.0297 -10.9232 -67.1266
v  -11.9767 0.7632 36.6272
v  -15.8797 -3.4449 -67.1266
v  -9.9906 6.6493 36.6272
v  -15.4746 4.9564 -67.1266
v  -5.3275 10.7537 36.6272
v  -10.9232 12.0297 -67.1266
# 24 vertices

vn 0.0622 0.9767 0.2055
vn 0.5422 0.8147 0.2055
vn 0.3005 0.9381 0.1722
vn -0.2088 0.9627 0.1722
vn 0.8769 0.4345 0.2055
vn 0.7293 0.6622 0.1722
vn 0.9767 -0.0622 0.2055
vn 0.9627 0.2088 0.1722
vn 0.8147 -0.5422 0.2055
vn 0.9381 -0.3005 0.1722
vn 0.4345 -0.8769 0.2055
vn 0.6622 -0.7293 0.1722
vn -0.0622 -0.9767 0.2055
vn 0.2088 -0.9627 0.1722
vn -0.5422 -0.8147 0.2055
vn -0.3005 -0.9381 0.1722
vn -0.8769 -0.4345 0.2055
vn -0.7293 -0.6622 0.1722
vn -0.9767 0.0622 0.2055
vn -0.9627 -0.2088 0.1722
vn -0.8147 0.5422 0.2055
vn -0.9381 0.3005 0.1722
vn -0.4345 0.8769 0.2055
vn -0.6622 0.7293 0.1722
# 24 vertex normals

vt 0.8958 0.6557 0.0000
vt 0.8132 0.6557 0.0000
vt 0.8132 0.0483 0.0000
vt 0.8958 0.0483 0.0000
vt 0.7326 0.6557 0.0000
vt 0.7326 0.0483 0.0000
vt 0.6533 0.6557 0.0000
vt 0.6533 0.0483 0.0000
vt 0.5746 0.6557 0.0000
vt 0.5746 0.0483 0.0000
vt 0.4961 0.6557 0.0000
vt 0.4961 0.0483 0.0000
vt 0.4176 0.6557 0.0000
vt 0.4176 0.0483 0.0000
vt 0.3388 0.6557 0.0000
vt 0.3388 0.0483 0.0000
vt 0.2595 0.6557 0.0000
vt 0.2595 0.0483 0.0000
vt 0.1789 0.6557 0.0000
vt 0.1789 0.0483 0.0000
vt 0.0963 0.6557 0.0000
vt 0.0963 0.0483 0.0000
vt 0.0111 0.6557 0.0000
vt 0.0111 0.0483 0.0000
vt 0.9810 0.6557 0.0000
vt 0.9810 0.0483 0.0000
# 26 texture coords

o Cylinder001
g Cylinder001
usemtl 01___Default
s 8
f 1/1/1 2/2/2 3/3/3 
f 3/3/3 4/4/4 1/1/1 
f 2/2/2 5/5/5 6/6/6 
f 6/6/6 3/3/3 2/2/2 
f 5/5/5 7/7/7 8/8/8 
f 8/8/8 6/6/6 5/5/5 
f 7/7/7 9/9/9 10/10/10 
f 10/10/10 8/8/8 7/7/7 
f 9/9/9 11/11/11 12/12/12 
f 12/12/12 10/10/10 9/9/9 
f 11/11/11 13/13/13 14/14/14 
f 14/14/14 12/12/12 11/11/11 
f 13/13/13 15/15/15 16/16/16 
f 16/16/16 14/14/14 13/13/13 
f 15/15/15 17/17/17 18/18/18 
f 18/18/18 16/16/16 15/15/15 
f 17/17/17 19/19/19 20/20/20 
f 20/20/20 18/18/18 17/17/17 
f 19/19/19 21/21/21 22/22/22 
f 22/22/22 20/20/20 19/19/19 
f 21/21/21 23/23/23 24/24/24 
f 24/24/24 22/22/22 21/21/21 
f 23/25/23 1/1/1 4/4/4 
f 4/4/4 24/26/24 23/25/23 
# 24 faces

