# 3ds Max Wavefront OBJ Exporter v0.97b - (c)2007 guruware
# File Created: 19.02.2019 17:21:02

mtllib Meteor_A.mtl

#
# object Plane001
#

v  -11.1489 33.2582 13.7398
v  -11.1489 18.4826 29.7962
v  0.0185 28.1203 23.5006
v  -26.7422 22.5073 3.8466
v  -26.7422 7.7318 19.9030
v  -11.6681 6.4108 29.7942
v  7.4278 18.4826 29.7962
v  13.2769 5.3153 29.3572
v  15.3164 31.1346 2.0182
v  -1.3658 35.5131 -0.9775
v  23.6868 17.5626 17.1665
v  32.2910 11.2763 -6.6112
v  24.3866 -4.6643 20.6792
v  -1.0839 22.2155 -16.9913
v  21.5333 19.7902 -17.9390
v  -23.4323 19.9520 -12.1604
v  -28.7696 -0.3263 -20.4921
v  -4.1494 6.9933 -32.7678
v  28.1424 -1.4081 -12.5996
v  27.3108 -16.1238 10.7984
v  18.9406 2.0847 -30.5762
v  -14.0786 -24.9326 -26.9645
v  4.0155 -7.9370 -30.9407
v  20.0051 -22.0821 -26.2502
v  -1.5871 -32.8407 -15.8285
v  15.7708 -30.0092 -0.7273
v  -13.9673 -16.5064 24.0136
v  -25.1597 -3.8160 10.8672
v  0.1849 -3.7943 24.2852
v  12.5249 -13.6366 24.4465
v  -23.1334 -25.1215 -12.9442
v  5.5423 -18.5013 6.7696
v  -8.1484 -26.9174 6.2109
v  -27.3171 -22.9744 7.2755
v  -26.4025 5.0978 5.1071
v  -32.2910 1.9789 -7.3655
# 36 vertices

vn -0.3428 0.8917 0.2954
vn -0.3542 0.3648 0.8611
vn 0.1447 0.7892 0.5968
vn -0.8257 0.5602 0.0653
vn -0.8748 0.0491 0.4820
vn -0.2468 -0.1360 0.9595
vn 0.2986 0.3992 0.8669
vn 0.3400 -0.1604 0.9266
vn 0.4689 0.8830 -0.0198
vn -0.0033 0.9681 -0.2505
vn 0.7507 0.4581 0.4760
vn 0.9692 0.1894 -0.1577
vn 0.7425 -0.1441 0.6541
vn -0.0676 0.7284 -0.6818
vn 0.5034 0.6307 -0.5905
vn -0.5835 0.5970 -0.5506
vn -0.7908 0.0975 -0.6043
vn -0.1723 0.3825 -0.9078
vn 0.9575 -0.1032 -0.2692
vn 0.7909 -0.5038 0.3474
vn 0.5131 0.1860 -0.8379
vn -0.3698 -0.5608 -0.7408
vn 0.0385 -0.1717 -0.9844
vn 0.5787 -0.5237 -0.6252
vn -0.0114 -0.9890 -0.1478
vn 0.2620 -0.9019 0.3435
vn -0.2613 -0.5547 0.7900
vn -0.9262 -0.1168 0.3585
vn 0.0744 -0.2510 0.9651
vn 0.2104 -0.5175 0.8294
vn -0.7026 -0.6754 -0.2242
vn 0.1033 -0.8629 0.4947
vn 0.1418 -0.9040 0.4033
vn -0.7337 -0.6031 0.3129
vn -0.9708 0.0129 0.2395
vn -0.9968 0.0711 -0.0356
# 36 vertex normals

vt 0.5584 0.4478 0.0000
vt 0.5584 0.6201 0.0000
vt 0.4703 0.5320 0.0000
vt 0.6816 0.4478 0.0000
vt 0.6816 0.6201 0.0000
vt 0.0005 0.4908 0.0000
vt 0.0206 0.4235 0.0000
vt 0.1383 0.5409 0.0000
vt 0.9204 0.5766 0.0000
vt 0.9164 0.7453 0.0000
vt 0.8385 0.6256 0.0000
vt 0.2087 0.4826 0.0000
vt 0.4118 0.6201 0.0000
vt 0.3495 0.3911 0.0000
vt 0.4812 0.3503 0.0000
vt 0.2834 0.5517 0.0000
vt 0.3035 0.9894 0.0000
vt 0.1429 0.9859 0.0000
vt 0.2531 0.8260 0.0000
vt 0.9803 0.1684 0.0000
vt 0.8763 0.1223 0.0000
vt 0.9849 0.0058 0.0000
vt 0.0076 0.8708 0.0000
vt 0.6186 0.4185 0.0000
vt 0.5414 0.3529 0.0000
vt 0.7417 0.3032 0.0000
vt 0.4097 0.3435 0.0000
vt 0.5391 0.1901 0.0000
vt 0.3606 0.1709 0.0000
vt 0.7156 0.2028 0.0000
vt 0.4789 0.6332 0.0000
vt 0.6068 0.6370 0.0000
vt 0.6926 0.7873 0.0000
vt 0.5633 0.0173 0.0000
vt 0.7577 0.0404 0.0000
vt 0.2238 0.7192 0.0000
vt 0.8081 0.0056 0.0000
vt 0.0079 0.7513 0.0000
vt 0.3810 0.0005 0.0000
vt 0.3648 0.8188 0.0000
vt 0.3495 0.6478 0.0000
vt 0.6949 0.4995 0.0000
vt 0.9092 0.5674 0.0000
vt 0.6974 0.7314 0.0000
vt 0.8088 0.1342 0.0000
vt 0.8733 0.2247 0.0000
vt 0.7304 0.3386 0.0000
vt 0.9995 0.3275 0.0000
vt 0.8290 0.4456 0.0000
vt 0.1993 0.5252 0.0000
vt 0.9911 0.1732 0.0000
vt 0.0056 0.6089 0.0000
vt 0.7001 0.7478 0.0000
vt 0.3682 0.7652 0.0000
vt 0.4506 0.8464 0.0000
vt 0.3606 0.9591 0.0000
vt 0.8757 0.5127 0.0000
vt 0.6846 0.4964 0.0000
vt 0.7821 0.4429 0.0000
vt 0.3893 0.3103 0.0000
vt 0.3268 0.4146 0.0000
vt 0.2497 0.3525 0.0000
vt 0.6589 0.4211 0.0000
vt 0.1389 0.3721 0.0000
vt 0.0597 0.2631 0.0000
vt 0.2399 0.2183 0.0000
vt 0.1561 0.1325 0.0000
vt 0.2568 0.0072 0.0000
vt 0.3524 0.1454 0.0000
vt 0.9661 0.5182 0.0000
vt 0.0041 0.1076 0.0000
vt 0.0764 0.0056 0.0000
vt 0.4982 0.9928 0.0000
vt 0.6587 0.9891 0.0000
vt 0.7683 0.9734 0.0000
vt 0.4867 0.7708 0.0000
vt 0.5875 0.7826 0.0000
# 77 texture coords

o Plane001
g Plane001
usemtl Meteor_A_02___Default
f 1/1/1 2/2/2 3/3/3 
f 1/1/1 4/4/4 5/5/5 
f 5/5/5 2/2/2 1/1/1 
f 2/6/2 6/7/6 7/8/7 
f 2/9/2 5/10/5 6/11/6 
f 7/8/7 6/7/6 8/12/8 
f 2/2/2 7/13/7 3/3/3 
f 3/3/3 9/14/9 10/15/10 
f 10/15/10 1/1/1 3/3/3 
f 9/14/9 7/13/7 11/16/11 
f 9/14/9 3/3/3 7/13/7 
f 9/17/9 11/18/11 12/19/12 
f 7/20/7 8/21/8 11/22/11 
f 11/18/11 13/23/13 12/19/12 
f 1/24/1 10/25/10 4/26/4 
f 9/27/9 14/28/14 10/25/10 
f 9/27/9 15/29/15 14/28/14 
f 10/25/10 16/30/16 4/26/4 
f 4/31/4 16/32/16 17/33/17 
f 14/28/14 18/34/18 17/35/17 
f 12/19/12 13/23/13 19/36/19 
f 11/22/11 8/21/8 13/37/13 
f 13/23/13 20/38/20 19/36/19 
f 18/34/18 14/28/14 21/39/21 
f 9/17/9 12/19/12 15/40/15 
f 15/40/15 19/36/19 21/41/21 
f 14/28/14 15/29/15 21/39/21 
f 15/40/15 12/19/12 19/36/19 
f 17/42/17 18/43/18 22/44/22 
f 18/45/18 23/46/23 22/47/22 
f 22/47/22 24/48/24 25/49/25 
f 22/47/22 23/46/23 24/48/24 
f 19/36/19 20/38/20 24/50/24 
f 19/36/19 24/50/24 21/41/21 
f 23/46/23 18/45/18 21/51/21 
f 24/48/24 23/46/23 21/51/21 
f 20/38/20 26/52/26 24/50/24 
f 6/11/6 5/10/5 27/53/27 
f 5/54/5 28/55/28 27/56/27 
f 13/57/13 29/58/29 30/59/30 
f 20/60/20 13/61/13 30/62/30 
f 25/49/25 31/63/31 22/47/22 
f 8/12/8 6/7/6 29/64/29 
f 6/7/6 27/65/27 29/64/29 
f 29/64/29 27/65/27 30/62/30 
f 30/62/30 32/66/32 20/60/20 
f 30/62/30 27/65/27 32/66/32 
f 33/67/33 25/68/25 32/66/32 
f 32/66/32 25/68/25 26/69/26 
f 26/70/26 25/49/25 24/48/24 
f 32/66/32 26/69/26 20/60/20 
f 13/61/13 8/12/8 29/64/29 
f 33/67/33 34/71/34 31/72/31 
f 31/72/31 25/68/25 33/67/33 
f 32/66/32 27/65/27 33/67/33 
f 33/67/33 27/65/27 34/71/34 
f 34/73/34 17/33/17 31/74/31 
f 31/74/31 17/33/17 22/75/22 
f 35/76/35 28/55/28 5/54/5 
f 34/73/34 27/56/27 28/55/28 
f 36/77/36 28/55/28 35/76/35 
f 17/33/17 34/73/34 36/77/36 
f 5/54/5 4/31/4 35/76/35 
f 35/76/35 4/31/4 36/77/36 
f 36/77/36 4/31/4 17/33/17 
f 36/77/36 34/73/34 28/55/28 
f 10/25/10 14/28/14 16/30/16 
f 16/30/16 14/28/14 17/35/17 
# 68 faces

