# 3ds Max Wavefront OBJ Exporter v0.97b - (c)2007 guruware
# File Created: 20.02.2019 13:38:20

mtllib Effect4.mtl

#
# object Cylinder001
#

v  -7.1678 9.6253 22.8802
v  -1.3948 11.9197 22.8802
v  -6.2340 15.0056 -67.1266
v  -12.9016 9.8783 -67.1266
v  4.7519 11.0201 22.8802
v  2.1040 16.1122 -67.1266
v  9.6253 7.1678 22.8802
v  9.8783 12.9016 -67.1266
v  11.9196 1.3948 22.8802
v  15.0056 6.2339 -67.1266
v  11.0201 -4.7519 22.8802
v  16.1122 -2.1041 -67.1266
v  7.1677 -9.6253 22.8802
v  12.9016 -9.8783 -67.1266
v  1.3948 -11.9196 22.8802
v  6.2340 -15.0056 -67.1266
v  -4.7519 -11.0201 22.8802
v  -2.1040 -16.1122 -67.1266
v  -9.6254 -7.1677 22.8802
v  -9.8783 -12.9016 -67.1266
v  -11.9197 -1.3948 22.8802
v  -15.0056 -6.2340 -67.1266
v  -11.0202 4.7519 22.8802
v  -16.1122 2.1040 -67.1266
# 24 vertices

vn -0.5807 0.7797 0.2344
vn -0.1130 0.9656 0.2344
vn -0.3760 0.9052 0.1980
vn -0.7782 0.5959 0.1980
vn 0.3849 0.8927 0.2344
vn 0.1269 0.9719 0.1980
vn 0.7797 0.5807 0.2344
vn 0.5959 0.7782 0.1980
vn 0.9656 0.1130 0.2344
vn 0.9052 0.3760 0.1980
vn 0.8927 -0.3849 0.2344
vn 0.9719 -0.1269 0.1980
vn 0.5807 -0.7797 0.2344
vn 0.7782 -0.5959 0.1980
vn 0.1130 -0.9656 0.2344
vn 0.3760 -0.9052 0.1980
vn -0.3849 -0.8927 0.2344
vn -0.1269 -0.9719 0.1980
vn -0.7797 -0.5807 0.2344
vn -0.5959 -0.7782 0.1980
vn -0.9656 -0.1130 0.2344
vn -0.9052 -0.3760 0.1980
vn -0.8927 0.3849 0.2344
vn -0.9719 0.1269 0.1980
# 24 vertex normals

vt 0.8958 0.6557 0.0000
vt 0.8132 0.6557 0.0000
vt 0.8132 0.0483 0.0000
vt 0.8958 0.0483 0.0000
vt 0.7326 0.6557 0.0000
vt 0.7326 0.0483 0.0000
vt 0.6533 0.6557 0.0000
vt 0.6533 0.0483 0.0000
vt 0.5746 0.6557 0.0000
vt 0.5746 0.0483 0.0000
vt 0.4961 0.6557 0.0000
vt 0.4961 0.0483 0.0000
vt 0.4176 0.6557 0.0000
vt 0.4176 0.0483 0.0000
vt 0.3388 0.6557 0.0000
vt 0.3388 0.0483 0.0000
vt 0.2595 0.6557 0.0000
vt 0.2595 0.0483 0.0000
vt 0.1789 0.6557 0.0000
vt 0.1789 0.0483 0.0000
vt 0.0963 0.6557 0.0000
vt 0.0963 0.0483 0.0000
vt 0.0111 0.6557 0.0000
vt 0.0111 0.0483 0.0000
vt 0.9810 0.6557 0.0000
vt 0.9810 0.0483 0.0000
# 26 texture coords

o Cylinder001
g Cylinder001
usemtl 01___Default
s 8
f 1/1/1 2/2/2 3/3/3 
f 3/3/3 4/4/4 1/1/1 
f 2/2/2 5/5/5 6/6/6 
f 6/6/6 3/3/3 2/2/2 
f 5/5/5 7/7/7 8/8/8 
f 8/8/8 6/6/6 5/5/5 
f 7/7/7 9/9/9 10/10/10 
f 10/10/10 8/8/8 7/7/7 
f 9/9/9 11/11/11 12/12/12 
f 12/12/12 10/10/10 9/9/9 
f 11/11/11 13/13/13 14/14/14 
f 14/14/14 12/12/12 11/11/11 
f 13/13/13 15/15/15 16/16/16 
f 16/16/16 14/14/14 13/13/13 
f 15/15/15 17/17/17 18/18/18 
f 18/18/18 16/16/16 15/15/15 
f 17/17/17 19/19/19 20/20/20 
f 20/20/20 18/18/18 17/17/17 
f 19/19/19 21/21/21 22/22/22 
f 22/22/22 20/20/20 19/19/19 
f 21/21/21 23/23/23 24/24/24 
f 24/24/24 22/22/22 21/21/21 
f 23/25/23 1/1/1 4/4/4 
f 4/4/4 24/26/24 23/25/23 
# 24 faces

