# 3ds Max Wavefront OBJ Exporter v0.97b - (c)2007 guruware
# File Created: 19.02.2019 17:22:25

mtllib meteor_B.mtl

#
# object Plane002
#

v  -5.9728 24.3712 -18.8860
v  -21.8526 11.4946 -13.5642
v  -19.8024 28.8298 -1.6481
v  7.1253 31.9715 -5.7492
v  21.7733 19.2307 -8.5758
v  12.7763 18.0167 -25.2883
v  12.9796 23.1424 5.4010
v  23.3247 12.1578 11.3870
v  27.9305 -2.3123 -9.7656
v  -0.6552 -7.0098 -23.9579
v  -18.6254 -3.3493 -18.0014
v  -24.0674 -18.3049 -5.2148
v  -3.1889 -26.5161 -18.3588
v  25.2824 -10.6903 -3.2651
v  25.3258 3.6796 16.0044
v  17.7835 -25.2462 -13.9798
v  18.0757 -9.3198 -22.4009
v  -12.7663 -29.1879 5.3333
v  17.9542 -26.1932 5.9893
v  -2.7593 -20.8247 17.7116
v  12.9275 -5.1259 18.7562
v  -10.0123 12.2487 17.8234
v  -1.3843 28.5578 7.1541
v  -23.8830 12.1922 1.6995
v  12.9951 11.8598 19.0260
v  -20.3381 -19.1598 12.6262
v  -5.5556 -2.1015 18.4119
v  -20.8191 -1.5120 14.6515
# 28 vertices

vn -0.2273 0.6067 -0.7618
vn -0.7878 0.1932 -0.5848
vn -0.6614 0.7468 0.0704
vn 0.3201 0.9339 -0.1592
vn 0.7818 0.5925 -0.1940
vn 0.3205 0.5030 -0.8027
vn 0.4529 0.7515 0.4797
vn 0.7856 0.5010 0.3630
vn 0.9701 -0.0791 -0.2296
vn -0.1857 -0.1625 -0.9691
vn -0.5754 -0.1237 -0.8084
vn -0.8663 -0.4199 -0.2704
vn -0.1822 -0.7090 -0.6813
vn 0.9564 -0.2920 -0.0060
vn 0.7913 0.0555 0.6089
vn 0.5332 -0.7136 -0.4544
vn 0.5050 -0.2570 -0.8239
vn -0.3242 -0.9249 0.1988
vn 0.5503 -0.7578 0.3504
vn -0.0177 -0.4895 0.8718
vn 0.2163 -0.0970 0.9715
vn -0.3047 0.3547 0.8840
vn 0.0425 0.7794 0.6251
vn -0.9505 0.2023 0.2359
vn 0.1859 0.3807 0.9058
vn -0.6958 -0.3936 0.6008
vn -0.1206 -0.0297 0.9923
vn -0.7179 0.0379 0.6951
# 28 vertex normals

vt 0.5584 0.4478 0.0000
vt 0.6816 0.4478 0.0000
vt 0.6816 0.6201 0.0000
vt 0.4118 0.6201 0.0000
vt 0.2834 0.5517 0.0000
vt 0.3035 0.9894 0.0000
vt 0.1429 0.9859 0.0000
vt 0.2749 0.8965 0.0000
vt 0.9803 0.1684 0.0000
vt 0.8763 0.1223 0.0000
vt 0.9849 0.0058 0.0000
vt 0.0076 0.8708 0.0000
vt 0.2531 0.8260 0.0000
vt 0.4097 0.3435 0.0000
vt 0.5391 0.1901 0.0000
vt 0.5414 0.3529 0.0000
vt 0.3789 0.2353 0.0000
vt 0.4789 0.6332 0.0000
vt 0.6068 0.6370 0.0000
vt 0.6926 0.7873 0.0000
vt 0.5633 0.0173 0.0000
vt 0.7577 0.0404 0.0000
vt 0.2238 0.7192 0.0000
vt 0.8081 0.0056 0.0000
vt 0.0079 0.7513 0.0000
vt 0.3810 0.0005 0.0000
vt 0.3648 0.8188 0.0000
vt 0.3495 0.6478 0.0000
vt 0.3606 0.1709 0.0000
vt 0.6949 0.4995 0.0000
vt 0.9092 0.5674 0.0000
vt 0.6974 0.7314 0.0000
vt 0.8088 0.1342 0.0000
vt 0.8733 0.2247 0.0000
vt 0.7304 0.3386 0.0000
vt 0.8290 0.4456 0.0000
vt 0.1993 0.5252 0.0000
vt 0.9911 0.1732 0.0000
vt 0.0056 0.6089 0.0000
vt 0.9164 0.7453 0.0000
vt 0.7001 0.7478 0.0000
vt 0.7899 0.6685 0.0000
vt 0.3682 0.7652 0.0000
vt 0.5875 0.7826 0.0000
vt 0.3606 0.9591 0.0000
vt 0.8757 0.5127 0.0000
vt 0.6846 0.4964 0.0000
vt 0.7821 0.4429 0.0000
vt 0.3893 0.3103 0.0000
vt 0.3268 0.4146 0.0000
vt 0.2497 0.3525 0.0000
vt 0.6589 0.4211 0.0000
vt 0.0343 0.3672 0.0000
vt 0.0597 0.2631 0.0000
vt 0.2087 0.4826 0.0000
vt 0.2399 0.2183 0.0000
vt 0.2568 0.0072 0.0000
vt 0.3524 0.1454 0.0000
vt 0.9661 0.5182 0.0000
vt 0.0041 0.1076 0.0000
vt 0.0764 0.0056 0.0000
vt 0.4982 0.9928 0.0000
vt 0.6587 0.9891 0.0000
vt 0.7683 0.9734 0.0000
vt 0.7156 0.2028 0.0000
vt 0.0206 0.4235 0.0000
vt 0.8385 0.6256 0.0000
# 67 texture coords

o Plane002
g Plane002
usemtl meteor_B_04___Default
f 1/1/1 2/2/2 3/3/3 
f 1/1/1 4/4/4 5/5/5 
f 1/1/1 3/3/3 4/4/4 
f 1/6/1 5/7/5 6/8/6 
f 4/9/4 7/10/7 5/11/5 
f 5/7/5 8/12/8 9/13/9 
f 1/14/1 10/15/10 2/16/2 
f 1/14/1 6/17/6 10/15/10 
f 2/18/2 11/19/11 12/20/12 
f 10/15/10 13/21/13 12/22/12 
f 9/13/9 8/12/8 14/23/14 
f 5/11/5 7/10/7 8/24/8 
f 8/12/8 15/25/15 14/23/14 
f 13/21/13 10/15/10 16/26/16 
f 17/27/17 14/23/14 16/28/16 
f 10/15/10 17/29/17 16/26/16 
f 17/27/17 9/13/9 14/23/14 
f 12/30/12 13/31/13 18/32/18 
f 13/33/13 19/34/19 18/35/18 
f 18/35/18 19/34/19 20/36/20 
f 14/23/14 15/25/15 19/37/19 
f 14/23/14 19/37/19 16/28/16 
f 19/34/19 13/33/13 16/38/16 
f 15/25/15 21/39/21 19/37/19 
f 3/40/3 22/41/22 23/42/23 
f 3/43/3 24/44/24 22/45/22 
f 8/46/8 7/47/7 25/48/25 
f 15/49/15 8/50/8 25/51/25 
f 20/36/20 26/52/26 18/35/18 
f 23/53/23 22/54/22 7/55/7 
f 7/55/7 22/54/22 25/51/25 
f 25/51/25 27/56/27 15/49/15 
f 25/51/25 22/54/22 27/56/27 
f 27/56/27 20/57/20 21/58/21 
f 21/59/21 20/36/20 19/34/19 
f 27/56/27 21/58/21 15/49/15 
f 27/56/27 28/60/28 26/61/26 
f 26/61/26 20/57/20 27/56/27 
f 27/56/27 22/54/22 28/60/28 
f 28/62/28 12/20/12 26/63/26 
f 26/63/26 12/20/12 18/64/18 
f 28/62/28 22/45/22 24/44/24 
f 12/20/12 28/62/28 24/44/24 
f 3/43/3 2/18/2 24/44/24 
f 24/44/24 2/18/2 12/20/12 
f 2/16/2 10/15/10 11/65/11 
f 11/65/11 10/15/10 12/22/12 
f 5/7/5 9/13/9 6/8/6 
f 6/8/6 9/13/9 17/27/17 
f 6/17/6 17/29/17 10/15/10 
f 7/55/7 4/66/4 23/53/23 
f 23/42/23 4/67/4 3/40/3 
# 52 faces

